<svg xmlns="http://www.w3.org/2000/svg" version="1.1" xmlns:xlink="http://www.w3.org/1999/xlink" xmlns:svgjs="http://svgjs.dev/svgjs" width="1000" height="1000" viewBox="0 0 1000 1000"><rect width="1000" height="1000" fill="#ed1703"></rect><g transform="matrix(0.7,0,0,0.7,149.57575757575756,470.65729253473285)"><svg viewBox="0 0 396 33" data-background-color="#ed1703" preserveAspectRatio="xMidYMid meet" height="83" width="1000" xmlns="http://www.w3.org/2000/svg" xmlns:xlink="http://www.w3.org/1999/xlink"><g id="tight-bounds" transform="matrix(1,0,0,1,0.2400000000000091,0.16625452401154917)"><svg viewBox="0 0 395.52 32.667490237841676" height="32.667490237841676" width="395.52"><g><svg viewBox="0 0 395.52 32.667490237841676" height="32.667490237841676" width="395.52"><g><svg viewBox="0 0 395.52 32.667490237841676" height="32.667490237841676" width="395.52"><g id="textblocktransform"><svg viewBox="0 0 395.52 32.667490237841676" height="32.667490237841676" width="395.52" id="textblock"><g><svg viewBox="0 0 395.52 32.667490237841676" height="32.667490237841676" width="395.52"><g transform="matrix(1,0,0,1,0,0)"><svg width="395.52" viewBox="3.299999952316284 -34.54999923706055 422.52001953125 34.89999771118164" height="32.667490237841676" data-palette-color="#ffffff"><path d="M32.85-5.2L32.85-18.3 26.6-5.5Q25.8-3.9 24.9-3.23 24-2.55 22.75-2.55L22.75-2.55Q21.15-2.55 20.05-3.68 18.95-4.8 17.2-7.75L17.2-7.75 11.4-18.3 11.4-4.15Q11.4-2 10.43-1 9.45 0 7.5 0L7.5 0Q5.3 0 4.3-0.98 3.3-1.95 3.3-4.8L3.3-4.8 3.3-26.6Q3.3-30.45 5.05-32.4 6.8-34.35 10.95-34.35L10.95-34.35Q12.5-34.35 13.65-33.83 14.8-33.3 15.38-32.63 15.95-31.95 16.5-30.95L16.5-30.95 23.2-16.3 30.3-30.7Q32.15-34.3 36.95-34.3L36.95-34.3Q39.2-34.3 40.8-33.52 42.4-32.75 43.33-31.03 44.25-29.3 44.25-26.7L44.25-26.7 44.25-4.95Q44.2 0 38 0L38 0Q35.75 0 34.33-1.23 32.9-2.45 32.85-5.2L32.85-5.2ZM67.55-7L67.55-7Q69.25-7 70.47-8.5 71.7-10 72.22-12.2 72.75-14.4 72.75-16.9L72.75-16.9Q72.75-19.45 72.2-21.73 71.65-24 70.42-25.6 69.2-27.2 67.55-27.2L67.55-27.2Q65.95-27.2 64.75-25.6 63.55-24 62.95-21.7 62.35-19.4 62.35-16.9L62.35-16.9Q62.35-14.4 62.92-12.2 63.5-10 64.72-8.5 65.95-7 67.55-7ZM76.4-1.68Q72.45 0.3 67.52 0.3 62.6 0.3 58.67-1.68 54.75-3.65 52.4-7.6 50.05-11.55 50.05-16.9L50.05-16.9Q50.05-25 54.92-29.78 59.8-34.55 67.55-34.55 75.3-34.55 80.2-29.78 85.1-25 85.1-16.9L85.1-16.9Q85.1-11.55 82.72-7.6 80.35-3.65 76.4-1.68ZM106.3-8.15L106.3-8.15Q108.85-8.15 109.62-9.45 110.4-10.75 110.4-13.9L110.4-13.9Q110.4-15.4 110.42-20.83 110.45-26.25 110.45-29.1L110.45-29.1Q110.45-31.75 111.72-32.98 113-34.2 116.1-34.2L116.1-34.2Q118.85-34.2 120.2-32.83 121.55-31.45 122.09-27.83 122.65-24.2 122.65-16.8L122.65-16.8Q122.65-13.65 121.92-11.05 121.2-8.45 119.92-6.63 118.65-4.8 117.05-3.43 115.45-2.05 113.6-1.25 111.75-0.45 109.95-0.05 108.15 0.35 106.4 0.35L106.4 0.35Q104.25 0.35 102.07-0.18 99.9-0.7 97.67-2 95.45-3.3 93.75-5.18 92.05-7.05 90.97-10.08 89.9-13.1 89.9-16.8L89.9-16.8Q89.9-24.2 90.5-27.83 91.1-31.45 92.55-32.83 94-34.2 97-34.2L97-34.2Q99.8-34.2 100.95-32.98 102.1-31.75 102.1-29.1L102.1-29.1Q102.1-26.2 102.12-20.83 102.15-15.45 102.15-13.95L102.15-13.95Q102.15-12.65 102.22-11.88 102.3-11.1 102.52-10.3 102.75-9.5 103.2-9.08 103.65-8.65 104.4-8.4 105.15-8.15 106.3-8.15ZM140.29-28.7L140.29-7.5Q140.29-3.6 138.84-1.8 137.39 0 134.44 0L134.44 0Q131.54 0 130.17-1.55 128.79-3.1 128.79-7.1L128.79-7.1 128.79-28.25Q128.79-34.25 134.44-34.25L134.44-34.25Q137.34-34.25 138.82-33.15 140.29-32.05 140.29-28.7L140.29-28.7ZM158.44-20.3L167.04-20.3Q169.69-20.3 170.77-19.45 171.84-18.6 171.84-16.55L171.84-16.55Q171.84-14.85 170.56-14.13 169.29-13.4 166.59-13.4L166.59-13.4 158.49-13.4 158.49-8.1 169.34-8.05Q172.14-8.05 173.37-7.23 174.59-6.4 174.59-4.3L174.59-4.3Q174.59-1.9 173.17-0.95 171.74 0 168.84 0L168.84 0 152.64 0Q149.69 0 148.31-1.58 146.94-3.15 146.94-7.15L146.94-7.15 146.94-28.25Q146.94-34.25 152.64-34.25L152.64-34.25 168.84-34.25Q171.74-34.25 173.17-33.35 174.59-32.45 174.59-30.1L174.59-30.1Q174.59-27.9 173.37-27.03 172.14-26.15 169.34-26.15L169.34-26.15 158.44-26.15 158.44-20.3ZM183.24-17.3L190.19-17.3Q191.99-17.3 193.04-16.93 194.09-16.55 194.54-15.7 194.99-14.85 194.99-13.4L194.99-13.4Q194.99-11.55 193.74-10.83 192.49-10.1 189.74-10.1L189.74-10.1 182.89-10.1Q178.84-10.1 178.84-13.6L178.84-13.6Q178.84-17.3 183.24-17.3L183.24-17.3ZM229.59-5.2L229.59-18.3 223.34-5.5Q222.54-3.9 221.64-3.23 220.74-2.55 219.49-2.55L219.49-2.55Q217.89-2.55 216.79-3.68 215.69-4.8 213.94-7.75L213.94-7.75 208.14-18.3 208.14-4.15Q208.14-2 207.16-1 206.19 0 204.24 0L204.24 0Q202.04 0 201.04-0.98 200.04-1.95 200.04-4.8L200.04-4.8 200.04-26.6Q200.04-30.45 201.79-32.4 203.54-34.35 207.69-34.35L207.69-34.35Q209.24-34.35 210.39-33.83 211.54-33.3 212.11-32.63 212.69-31.95 213.24-30.95L213.24-30.95 219.94-16.3 227.04-30.7Q228.89-34.3 233.69-34.3L233.69-34.3Q235.94-34.3 237.54-33.52 239.14-32.75 240.06-31.03 240.99-29.3 240.99-26.7L240.99-26.7 240.99-4.95Q240.94 0 234.74 0L234.74 0Q232.49 0 231.06-1.23 229.64-2.45 229.59-5.2L229.59-5.2ZM264.28-7L264.28-7Q265.98-7 267.21-8.5 268.43-10 268.96-12.2 269.48-14.4 269.48-16.9L269.48-16.9Q269.48-19.45 268.93-21.73 268.38-24 267.16-25.6 265.93-27.2 264.28-27.2L264.28-27.2Q262.68-27.2 261.48-25.6 260.28-24 259.68-21.7 259.08-19.4 259.08-16.9L259.08-16.9Q259.08-14.4 259.66-12.2 260.23-10 261.46-8.5 262.68-7 264.28-7ZM273.13-1.68Q269.18 0.3 264.26 0.3 259.33 0.3 255.41-1.68 251.48-3.65 249.13-7.6 246.78-11.55 246.78-16.9L246.78-16.9Q246.78-25 251.66-29.78 256.53-34.55 264.28-34.55 272.03-34.55 276.93-29.78 281.83-25 281.83-16.9L281.83-16.9Q281.83-11.55 279.46-7.6 277.08-3.65 273.13-1.68ZM319.73-29.95L319.73-4.75Q319.73-2.55 318.43-1.28 317.13 0 314.63 0L314.63 0Q313.98 0 313.33-0.15 312.68-0.3 311.95-0.7 311.23-1.1 310.68-1.45 310.13-1.8 309.31-2.53 308.48-3.25 308-3.68 307.53-4.1 306.53-5.05 305.53-6 305.08-6.45L305.08-6.45 295.93-15.1 295.93-4.25Q295.93-1.8 295-0.9 294.08 0 292.08 0L292.08 0Q289.88 0 288.83-1 287.78-2 287.78-4.35L287.78-4.35 287.78-28.5Q287.78-31.35 289.23-32.8 290.68-34.25 293.38-34.25L293.38-34.25Q295.23-34.25 296.36-33.68 297.48-33.1 299.03-31.6L299.03-31.6 311.68-19 311.68-29.9Q311.68-32.05 312.75-33.13 313.83-34.2 315.68-34.2L315.68-34.2Q317.83-34.2 318.78-33.2 319.73-32.2 319.73-29.95L319.73-29.95ZM338.03-27.25L338.03-6.8Q339.33-6.8 340.3-7.08 341.28-7.35 342.15-8.08 343.03-8.8 343.58-10 344.13-11.2 344.45-13.08 344.78-14.95 344.78-17.5L344.78-17.5Q344.78-20.35 344.28-22.33 343.78-24.3 342.83-25.33 341.88-26.35 340.75-26.78 339.63-27.2 338.03-27.25L338.03-27.25ZM332.18-34.2L339.53-34.2Q347.33-34.2 352.05-29.7 356.78-25.2 356.78-17.3L356.78-17.3Q356.78-14.75 356.3-12.35 355.83-9.95 354.73-7.68 353.63-5.4 351.98-3.73 350.33-2.05 347.78-1.03 345.23 0 342.03 0L342.03 0 332.18 0Q329.13 0 327.8-1.55 326.48-3.1 326.48-7.15L326.48-7.15 326.48-28.25Q326.48-34.2 332.18-34.2L332.18-34.2ZM376.98-26.1L376.98-26.1Q374.83-26.1 373.8-24.85 372.78-23.6 372.78-20.4L372.78-20.4 372.78-14.5 381.08-14.5 381.08-20.5Q381.08-22.6 380.58-23.88 380.08-25.15 379.2-25.63 378.33-26.1 376.98-26.1ZM381.08-4.95L381.08-7.6 372.78-7.6 372.78-4.95Q372.78-2.4 371.43-1.2 370.08 0 366.78 0L366.78 0Q365.38 0 364.48-0.4 363.58-0.8 362.9-1.75 362.23-2.7 361.9-4.53 361.58-6.35 361.4-8.93 361.23-11.5 361.23-15.45L361.23-15.45Q361.23-18.9 361.95-21.78 362.68-24.65 363.9-26.65 365.13-28.65 366.68-30.18 368.23-31.7 370.05-32.55 371.88-33.4 373.6-33.83 375.33-34.25 377.08-34.25L377.08-34.25Q379.18-34.25 381.23-33.68 383.28-33.1 385.38-31.7 387.48-30.3 389.05-28.23 390.63-26.15 391.63-22.85 392.63-19.55 392.63-15.45L392.63-15.45Q392.63-8.85 392.15-5.68 391.68-2.5 390.55-1.25 389.43 0 387.08 0L387.08 0Q383.78 0 382.43-1.2 381.08-2.4 381.08-4.95L381.08-4.95ZM415.67-15L415.67-7.5Q415.67-3.45 414.22-1.73 412.77 0 409.77 0L409.77 0Q406.87 0 405.52-1.58 404.17-3.15 404.12-7.15L404.12-7.15 404.07-15.25 396.37-24.25Q394.27-26.65 394.27-28.4L394.27-28.4Q394.27-31.15 396.37-32.75L396.37-32.75Q398.37-34.25 399.92-34.25L399.92-34.25Q402.07-34.25 403.77-32.3L403.77-32.3 409.87-25.2 414.97-31.15Q417.52-34.2 420.42-34.2L420.42-34.2Q422.57-34.2 423.77-33L423.77-33Q425.82-30.95 425.82-29.05L425.82-29.05Q425.82-28 425.12-26.83 424.42-25.65 422.87-23.8L422.87-23.8 415.67-15Z" opacity="1" transform="matrix(1,0,0,1,0,0)" fill="#ffffff" class="undefined-text-0" data-fill-palette-color="primary" id="text-0"></path></svg></g></svg></g></svg></g></svg></g><g></g></svg></g><defs></defs></svg><rect width="395.52" height="32.667490237841676" fill="none" stroke="none" visibility="hidden"></rect></g></svg></g></svg>